<mxfile host="app.diagrams.net" agent="Mozilla/5.0 (X11; Ubuntu; Linux x86_64; rv:132.0) Gecko/20100101 Firefox/132.0" version="26.0.9">
  <diagram name="Page-1" id="3Th62RtiIefrFgwD7AwI">
    <mxGraphModel dx="1364" dy="747" grid="1" gridSize="10" guides="1" tooltips="1" connect="1" arrows="1" fold="1" page="1" pageScale="1" pageWidth="850" pageHeight="1100" math="0" shadow="0">
      <root>
        <mxCell id="0" />
        <mxCell id="1" parent="0" />
        <mxCell id="JPZ6Wizq6xDKpnHMBqzl-3" value="" style="edgeStyle=orthogonalEdgeStyle;rounded=0;orthogonalLoop=1;jettySize=auto;html=1;" edge="1" parent="1" source="JPZ6Wizq6xDKpnHMBqzl-1">
          <mxGeometry relative="1" as="geometry">
            <mxPoint x="440" y="170" as="targetPoint" />
          </mxGeometry>
        </mxCell>
        <mxCell id="JPZ6Wizq6xDKpnHMBqzl-1" value="START" style="ellipse;whiteSpace=wrap;html=1;" vertex="1" parent="1">
          <mxGeometry x="380" width="120" height="80" as="geometry" />
        </mxCell>
        <mxCell id="JPZ6Wizq6xDKpnHMBqzl-6" value="" style="edgeStyle=orthogonalEdgeStyle;rounded=0;orthogonalLoop=1;jettySize=auto;html=1;" edge="1" parent="1" target="JPZ6Wizq6xDKpnHMBqzl-5">
          <mxGeometry relative="1" as="geometry">
            <mxPoint x="440" y="260" as="sourcePoint" />
          </mxGeometry>
        </mxCell>
        <mxCell id="JPZ6Wizq6xDKpnHMBqzl-7" style="edgeStyle=orthogonalEdgeStyle;rounded=0;orthogonalLoop=1;jettySize=auto;html=1;" edge="1" parent="1" source="JPZ6Wizq6xDKpnHMBqzl-5">
          <mxGeometry relative="1" as="geometry">
            <mxPoint x="340" y="340" as="targetPoint" />
          </mxGeometry>
        </mxCell>
        <mxCell id="JPZ6Wizq6xDKpnHMBqzl-8" value="False" style="edgeLabel;html=1;align=center;verticalAlign=middle;resizable=0;points=[];" vertex="1" connectable="0" parent="JPZ6Wizq6xDKpnHMBqzl-7">
          <mxGeometry x="-0.0083" y="1" relative="1" as="geometry">
            <mxPoint as="offset" />
          </mxGeometry>
        </mxCell>
        <mxCell id="JPZ6Wizq6xDKpnHMBqzl-13" value="" style="edgeStyle=orthogonalEdgeStyle;rounded=0;orthogonalLoop=1;jettySize=auto;html=1;" edge="1" parent="1" source="JPZ6Wizq6xDKpnHMBqzl-5">
          <mxGeometry relative="1" as="geometry">
            <mxPoint x="540" y="340" as="targetPoint" />
          </mxGeometry>
        </mxCell>
        <mxCell id="JPZ6Wizq6xDKpnHMBqzl-14" value="True" style="edgeLabel;html=1;align=center;verticalAlign=middle;resizable=0;points=[];" vertex="1" connectable="0" parent="JPZ6Wizq6xDKpnHMBqzl-13">
          <mxGeometry x="0.0667" relative="1" as="geometry">
            <mxPoint as="offset" />
          </mxGeometry>
        </mxCell>
        <mxCell id="JPZ6Wizq6xDKpnHMBqzl-5" value="&lt;div&gt;n&amp;gt;0&lt;/div&gt;&lt;div&gt;AND&lt;/div&gt;&lt;div&gt;n % 1 == 0&lt;br&gt;&lt;/div&gt;" style="rhombus;whiteSpace=wrap;html=1;" vertex="1" parent="1">
          <mxGeometry x="400" y="300" width="80" height="80" as="geometry" />
        </mxCell>
        <mxCell id="JPZ6Wizq6xDKpnHMBqzl-11" value="" style="edgeStyle=orthogonalEdgeStyle;rounded=0;orthogonalLoop=1;jettySize=auto;html=1;" edge="1" parent="1" source="JPZ6Wizq6xDKpnHMBqzl-9" target="JPZ6Wizq6xDKpnHMBqzl-10">
          <mxGeometry relative="1" as="geometry" />
        </mxCell>
        <mxCell id="JPZ6Wizq6xDKpnHMBqzl-9" value="print error" style="shape=parallelogram;perimeter=parallelogramPerimeter;whiteSpace=wrap;html=1;fixedSize=1;" vertex="1" parent="1">
          <mxGeometry x="230" y="320" width="120" height="60" as="geometry" />
        </mxCell>
        <mxCell id="JPZ6Wizq6xDKpnHMBqzl-10" value="&lt;div&gt;end&lt;/div&gt;&lt;div&gt;&lt;br&gt;&lt;/div&gt;" style="ellipse;whiteSpace=wrap;html=1;" vertex="1" parent="1">
          <mxGeometry x="220" y="470" width="120" height="80" as="geometry" />
        </mxCell>
        <mxCell id="JPZ6Wizq6xDKpnHMBqzl-18" value="" style="edgeStyle=orthogonalEdgeStyle;rounded=0;orthogonalLoop=1;jettySize=auto;html=1;" edge="1" parent="1" source="JPZ6Wizq6xDKpnHMBqzl-17">
          <mxGeometry relative="1" as="geometry">
            <mxPoint x="440" y="200" as="targetPoint" />
          </mxGeometry>
        </mxCell>
        <mxCell id="JPZ6Wizq6xDKpnHMBqzl-17" value="count = 0" style="rounded=0;whiteSpace=wrap;html=1;" vertex="1" parent="1">
          <mxGeometry x="380" y="100" width="120" height="60" as="geometry" />
        </mxCell>
        <mxCell id="JPZ6Wizq6xDKpnHMBqzl-19" value="read n" style="shape=parallelogram;perimeter=parallelogramPerimeter;whiteSpace=wrap;html=1;fixedSize=1;" vertex="1" parent="1">
          <mxGeometry x="380" y="200" width="120" height="60" as="geometry" />
        </mxCell>
        <mxCell id="JPZ6Wizq6xDKpnHMBqzl-22" value="" style="edgeStyle=orthogonalEdgeStyle;rounded=0;orthogonalLoop=1;jettySize=auto;html=1;" edge="1" parent="1" source="JPZ6Wizq6xDKpnHMBqzl-20" target="JPZ6Wizq6xDKpnHMBqzl-21">
          <mxGeometry relative="1" as="geometry" />
        </mxCell>
        <mxCell id="JPZ6Wizq6xDKpnHMBqzl-20" value="count += 1" style="rhombus;whiteSpace=wrap;html=1;" vertex="1" parent="1">
          <mxGeometry x="540" y="300" width="80" height="80" as="geometry" />
        </mxCell>
        <mxCell id="JPZ6Wizq6xDKpnHMBqzl-24" value="" style="edgeStyle=orthogonalEdgeStyle;rounded=0;orthogonalLoop=1;jettySize=auto;html=1;" edge="1" parent="1" source="JPZ6Wizq6xDKpnHMBqzl-21" target="JPZ6Wizq6xDKpnHMBqzl-23">
          <mxGeometry relative="1" as="geometry" />
        </mxCell>
        <mxCell id="JPZ6Wizq6xDKpnHMBqzl-21" value="n += (counter*counter)" style="whiteSpace=wrap;html=1;" vertex="1" parent="1">
          <mxGeometry x="520" y="470" width="120" height="60" as="geometry" />
        </mxCell>
        <mxCell id="JPZ6Wizq6xDKpnHMBqzl-27" style="edgeStyle=orthogonalEdgeStyle;rounded=0;orthogonalLoop=1;jettySize=auto;html=1;exitX=0.5;exitY=1;exitDx=0;exitDy=0;" edge="1" parent="1" source="JPZ6Wizq6xDKpnHMBqzl-23" target="JPZ6Wizq6xDKpnHMBqzl-28">
          <mxGeometry relative="1" as="geometry">
            <mxPoint x="440" y="630" as="targetPoint" />
          </mxGeometry>
        </mxCell>
        <mxCell id="JPZ6Wizq6xDKpnHMBqzl-23" value="count == n" style="rhombus;whiteSpace=wrap;html=1;" vertex="1" parent="1">
          <mxGeometry x="540" y="560" width="80" height="80" as="geometry" />
        </mxCell>
        <mxCell id="JPZ6Wizq6xDKpnHMBqzl-25" value="" style="endArrow=classic;html=1;rounded=0;" edge="1" parent="1">
          <mxGeometry width="50" height="50" relative="1" as="geometry">
            <mxPoint x="730" y="510" as="sourcePoint" />
            <mxPoint x="780" y="460" as="targetPoint" />
          </mxGeometry>
        </mxCell>
        <mxCell id="JPZ6Wizq6xDKpnHMBqzl-29" style="edgeStyle=orthogonalEdgeStyle;rounded=0;orthogonalLoop=1;jettySize=auto;html=1;entryX=0.5;entryY=1;entryDx=0;entryDy=0;" edge="1" parent="1" source="JPZ6Wizq6xDKpnHMBqzl-28" target="JPZ6Wizq6xDKpnHMBqzl-10">
          <mxGeometry relative="1" as="geometry" />
        </mxCell>
        <mxCell id="JPZ6Wizq6xDKpnHMBqzl-28" value="write n" style="shape=parallelogram;perimeter=parallelogramPerimeter;whiteSpace=wrap;html=1;fixedSize=1;" vertex="1" parent="1">
          <mxGeometry x="380" y="600" width="120" height="60" as="geometry" />
        </mxCell>
      </root>
    </mxGraphModel>
  </diagram>
</mxfile>
